<svg xmlns="http://www.w3.org/2000/svg" width="265.68" height="70.14" viewBox="0 -55.86 265.68 70.14" fill="none">
  <g transform="translate(-0.25 -56.46) scale(3.53)" fill="none" stroke="#164c35" stroke-linecap="round" stroke-linejoin="round">
    <path d="M2.8 17.3c2.1-4.7 4.4-5.2 6.5-3 2 2.1 4.1 1.8 5.8-1.6 1.2-2.4 2.3-4.1 3.6-5.4" stroke-width="1.8"/>
    <path d="M20.1 2.7c.2 1.8 1 2.6 2.8 2.9-1.8.3-2.6 1.1-2.9 2.8-.2-1.7-1-2.5-2.7-2.8 1.8-.3 2.6-1.1 2.8-2.9Z" stroke-width="1.4"/>
  </g>
  <path d="M131.22 0L102.49 0L102.49-44.80L110.23-44.80L110.23-6.98L131.22-6.98L131.22 0ZM143.57 0L136.21 0L136.21-31.62L143.57-31.62L143.57 0ZM139.86-35.65L139.86-35.65Q137.88-35.65 136.44-36.96Q135.00-38.27 135.00-40.45L135.00-40.45Q135.00-42.62 136.44-43.94Q137.88-45.25 139.86-45.25L139.86-45.25Q141.97-45.25 143.35-43.94Q144.73-42.62 144.73-40.45L144.73-40.45Q144.73-38.27 143.35-36.96Q141.97-35.65 139.86-35.65ZM159.00 0L151.64 0L151.64-44.80L159.00-44.80L159.00 0ZM187.86 0L179.09 0Q176.02 0 174.20-1.82Q172.37-3.65 172.37-6.78L172.37-6.78L172.37-25.54L164.12-25.54L164.12-31.62L172.37-31.62L172.37-41.79L179.73-41.79L179.73-31.62L188.82-31.62L188.82-25.54L179.73-25.54L179.73-8Q179.73-6.08 181.53-6.08L181.53-6.08L187.86-6.08L187.86 0ZM226.84 0.90L226.84 0.90Q221.46 0.90 217.59-1.06Q213.72-3.01 211.64-6.72Q209.56-10.43 209.56-15.55L209.56-15.55L209.56-44.80L217.24-44.80L217.24-15.36Q217.24-10.88 219.73-8.45Q222.23-6.02 226.84-6.02L226.84-6.02Q231.51-6.02 233.97-8.45Q236.44-10.88 236.44-15.36L236.44-15.36L236.44-44.80L244.12-44.80L244.12-15.55Q244.12-10.43 242.07-6.72Q240.02-3.01 236.12-1.06Q232.21 0.90 226.84 0.90ZM259.22 0L251.48 0L251.48-44.80L259.22-44.80L259.22 0Z" fill="#121713"/>
</svg>
